<svg width="80" height="70" viewBox="0 0 80 70" fill="none" xmlns="http://www.w3.org/2000/svg">
<g clip-path="url(#clip0_2_7)">
<path d="M13.3333 12.7273C9.65144 12.7273 6.66667 15.5764 6.66667 19.0909V27.0455C6.66667 27.9241 7.41287 28.6364 8.33334 28.6364H71.6667C72.587 28.6364 73.3333 27.9241 73.3333 27.0455V19.0909C73.3333 15.5764 70.3487 12.7273 66.6667 12.7273H13.3333Z" fill="#031D40"/>
<path fill-rule="evenodd" clip-rule="evenodd" d="M6.66667 36.5909C6.66667 35.7124 7.41287 35 8.33334 35H71.6667C72.587 35 73.3333 35.7124 73.3333 36.5909V57.2727C73.3333 60.7874 70.3487 63.6364 66.6667 63.6364H13.3333C9.65144 63.6364 6.66667 60.7874 6.66667 57.2727V36.5909ZM50 47.7273C50 45.97 51.4923 44.5455 53.3333 44.5455H60C61.841 44.5455 63.3333 45.97 63.3333 47.7273C63.3333 49.4846 61.841 50.9091 60 50.9091H53.3333C51.4923 50.9091 50 49.4846 50 47.7273Z" fill="#031D40"/>
</g>
<defs>
<clipPath id="clip0_2_7">
<rect width="80" height="70" fill="white"/>
</clipPath>
</defs>
</svg>
