<svg width="39" height="16" viewBox="0 0 39 16" fill="none" xmlns="http://www.w3.org/2000/svg">
<path d="M3.48478 5.66455C3.26565 5.66369 3.0557 5.57766 2.90055 5.42517L1.08838 3.68718C0.936137 3.5331 0.850984 3.32648 0.851074 3.11142C0.851187 2.89635 0.936543 2.68983 1.08894 2.53588C1.24135 2.38193 1.44875 2.29276 1.66691 2.28737C1.88509 2.28196 2.09676 2.36077 2.25683 2.50696L4.069 4.24975C4.18802 4.36426 4.2697 4.51111 4.30364 4.67159C4.33758 4.83206 4.32222 4.99887 4.25951 5.1507C4.19682 5.30253 4.08963 5.43249 3.95164 5.52403C3.81365 5.61554 3.65112 5.66448 3.48478 5.66455Z" fill="white"/>
<path d="M0.811301 15.9903C0.647444 15.9854 0.488638 15.9331 0.354661 15.84C0.220662 15.7469 0.117378 15.6171 0.0575946 15.4667C-0.00216611 15.3162 -0.0157869 15.1518 0.0184459 14.9938C0.0526786 14.8358 0.133254 14.6912 0.25016 14.5779L6.76281 8.2855C6.8412 8.20973 6.93398 8.14991 7.03582 8.10948C7.13768 8.06905 7.2466 8.0488 7.35641 8.04984C7.46621 8.05089 7.5747 8.07326 7.67573 8.11564C7.77676 8.15803 7.86834 8.2196 7.94522 8.29685C8.0221 8.37412 8.08278 8.46554 8.1238 8.5659C8.16484 8.66629 8.18541 8.77364 8.18433 8.88183C8.18327 8.99004 8.16058 9.09698 8.11755 9.19653C8.07455 9.29609 8.01208 9.38633 7.93367 9.4621L1.42224 15.7557C1.34177 15.8335 1.24613 15.8943 1.14113 15.9346C1.03614 15.975 0.923945 15.9939 0.811301 15.9903Z" fill="white"/>
<path d="M2.55923 14.3158C2.77843 14.3159 2.98996 14.2362 3.15316 14.092L1.42845 15.7498C1.32994 15.8461 1.209 15.9172 1.07622 15.9569L1.04584 15.9652L1.02156 15.9712H0.993615H0.963262L0.92197 15.9772C0.894029 15.9772 0.864871 15.9772 0.83693 15.9772C0.809012 15.9772 0.782288 15.9772 0.755565 15.9772H0.722775H0.709403H0.67296L0.62682 15.9676L0.587942 15.9557C0.560926 15.9481 0.534541 15.9385 0.50899 15.9269L0.473765 15.9126C0.410757 15.8827 0.351943 15.8449 0.29888 15.8C0.289702 15.7941 0.281516 15.7869 0.274593 15.7785C0.264039 15.7707 0.254274 15.7619 0.245434 15.7522C0.22595 15.7338 0.207684 15.7142 0.190771 15.6935C0.156854 15.652 0.12677 15.6075 0.100903 15.5607C0.06525 15.4949 0.0383015 15.4249 0.0207341 15.3524C0.0207341 15.3416 0.0207338 15.3309 0.0146676 15.3213C0.013991 15.3117 0.013991 15.3021 0.0146676 15.2925C0.0146676 15.2782 0.0146676 15.265 0.0146676 15.2506C0.0146676 15.2363 0.0146676 15.1956 0.0146676 15.1669V2.3139C0.0146676 2.28518 0.0146676 2.25765 0.0146676 2.23012C0.0146676 2.20259 0.0146676 2.20259 0.0146676 2.18822C0.0142165 2.17704 0.0146228 2.16583 0.0158857 2.15471C0.0158857 2.14513 0.015886 2.13556 0.0219522 2.12478C0.0390235 2.05191 0.0655657 1.98151 0.100903 1.91532C0.127424 1.87302 0.157485 1.83298 0.190771 1.79562C0.207368 1.77466 0.225657 1.75505 0.245434 1.73697C0.254274 1.72729 0.264039 1.71847 0.274593 1.71064C0.281448 1.70188 0.289657 1.69421 0.29888 1.68789C0.352327 1.64387 0.411073 1.60648 0.473765 1.57658L0.50899 1.56221C0.534518 1.55029 0.560903 1.54028 0.587942 1.53229L0.62682 1.52152L0.67296 1.51074H0.709403H0.722775H0.755565C0.782288 1.51074 0.809012 1.51074 0.83693 1.51074C0.864871 1.51074 0.894029 1.51074 0.92197 1.51074H0.963262H0.993615H1.02156L1.04584 1.51673L1.07622 1.52511C1.20918 1.56441 1.33019 1.63555 1.42845 1.73218L3.15316 3.38997C3.0258 3.27714 2.868 3.2031 2.69887 3.17676C2.52971 3.15041 2.35643 3.17289 2.19997 3.24151C2.04351 3.31011 1.91057 3.42192 1.81719 3.5634C1.7238 3.70485 1.67401 3.86995 1.67378 4.03873V13.4444C1.67378 13.559 1.69669 13.6725 1.74119 13.7783C1.78568 13.8842 1.85092 13.9804 1.93312 14.0614C2.01534 14.1425 2.11297 14.2067 2.22038 14.2506C2.32781 14.2945 2.44296 14.317 2.55923 14.317V14.3158Z" fill="white"/>
<path d="M9.04301 10.3276C9.26211 10.3286 9.472 10.4146 9.62722 10.567L11.4333 12.305C11.5152 12.3798 11.5811 12.4701 11.6271 12.5704C11.6731 12.6707 11.6981 12.7791 11.7011 12.8891C11.7038 12.9992 11.6842 13.1087 11.6433 13.2111C11.6027 13.3136 11.5414 13.407 11.4634 13.4858C11.3854 13.5646 11.2922 13.6272 11.1892 13.6699C11.0863 13.7126 10.9757 13.7346 10.864 13.7346C10.7523 13.7345 10.6418 13.7124 10.5389 13.6696C10.436 13.6268 10.3428 13.5641 10.2649 13.4852L8.45879 11.7424C8.33977 11.6279 8.25809 11.4811 8.22415 11.3206C8.19021 11.1601 8.20557 10.9933 8.26826 10.8415C8.33095 10.6897 8.43814 10.5597 8.57615 10.4682C8.71414 10.3766 8.87667 10.3277 9.04301 10.3276Z" fill="white"/>
<path d="M11.7162 0.000301841C11.8804 0.00491563 12.0394 0.0570203 12.1736 0.150116C12.3077 0.243213 12.411 0.37318 12.4708 0.523807C12.5305 0.674432 12.5438 0.839052 12.5093 0.997128C12.4746 1.1552 12.3937 1.29974 12.2762 1.41272L5.76475 7.70633C5.60511 7.8527 5.39379 7.93186 5.17578 7.92699C4.95778 7.92212 4.75033 7.83359 4.59757 7.68026C4.44481 7.5269 4.35882 7.32085 4.35792 7.10597C4.35699 6.89107 4.44122 6.68432 4.59268 6.52971L11.1053 0.239695C11.1854 0.161041 11.2808 0.0992578 11.3858 0.0581029C11.4908 0.0169479 11.6032 -0.00271797 11.7162 0.000301841Z" fill="white"/>
<path d="M12.5263 0.826551V13.6783C12.5263 13.707 12.5263 13.7346 12.5263 13.7621C12.5263 13.7896 12.5263 13.7896 12.5263 13.804C12.5268 13.814 12.5268 13.8239 12.5263 13.8339C12.5263 13.8423 12.5263 13.8543 12.5189 13.8638C12.5029 13.9366 12.4762 14.0068 12.4399 14.0721C12.4138 14.118 12.3836 14.1616 12.3502 14.2026C12.333 14.2229 12.3148 14.2421 12.2954 14.2612L12.2663 14.2888L12.2419 14.3091C12.1885 14.3534 12.1299 14.3912 12.0672 14.4216L12.0318 14.4372C12.0056 14.4482 11.979 14.4578 11.9517 14.4659L11.914 14.4767C11.8983 14.4767 11.8836 14.4767 11.8667 14.4863H11.8315H11.8193C11.808 14.4868 11.7965 14.4868 11.7853 14.4863C11.7582 14.4881 11.7309 14.4881 11.7039 14.4863C11.6757 14.4881 11.6473 14.4881 11.6188 14.4863L11.5764 14.4803C11.5668 14.4814 11.5568 14.4814 11.5474 14.4803H11.5194H11.495L11.4647 14.4719C11.3319 14.4322 11.2109 14.3611 11.1124 14.2648L9.3877 12.607C9.51506 12.7199 9.67286 12.7939 9.84201 12.8203C10.0112 12.8466 10.1844 12.8241 10.3409 12.7555C10.4973 12.6869 10.6303 12.5751 10.7237 12.4336C10.8171 12.2921 10.8669 12.127 10.8671 11.9583V2.54897C10.8671 2.38008 10.8175 2.2148 10.7241 2.07318C10.6308 1.93155 10.4977 1.81968 10.3411 1.75112C10.1844 1.68256 10.011 1.66027 9.84176 1.68695C9.67254 1.71363 9.51479 1.78813 9.3877 1.90142L11.0991 0.24004C11.1969 0.143689 11.3182 0.0736371 11.4513 0.0365565L11.4817 0.0269809H11.506L11.5338 0.0209961H11.5631H11.6055C11.6335 0.0209961 11.6626 0.0209961 11.6906 0.0209961C11.7185 0.0209961 11.7451 0.0209961 11.772 0.0209961H11.806H11.8182H11.8534L11.9007 0.0317688C11.9134 0.0350378 11.926 0.0390343 11.9384 0.0437383C11.9659 0.0507944 11.9927 0.0604132 12.0185 0.0724653C12.0295 0.0724653 12.0428 0.0808441 12.0536 0.086829C12.1161 0.117262 12.1747 0.154609 12.2286 0.198146C12.2372 0.206525 12.2455 0.21251 12.253 0.220888L12.2832 0.24004C12.3028 0.258015 12.3211 0.277205 12.338 0.297494C12.3716 0.338474 12.4016 0.382112 12.4278 0.427962C12.4638 0.493392 12.4904 0.563504 12.5067 0.636233L12.5141 0.667355C12.5148 0.677314 12.5148 0.687318 12.5141 0.69728C12.5141 0.710445 12.5141 0.723612 12.5141 0.737976C12.5141 0.75234 12.5263 0.796626 12.5263 0.826551Z" fill="white"/>
<path d="M27.6866 4.32324L25.2428 11.4751H24.4339L22.3084 5.37058L20.1731 11.4751H19.3727L16.9265 4.32324H17.7124L19.8075 10.4733L21.9732 4.32324H22.6922L24.8287 10.5044L26.953 4.32324H27.6866Z" fill="white"/>
<path d="M35.1518 4.32324V11.4751H34.3941V8.17498H29.8587V11.4751H29.0911V4.32324H29.8587V7.51075H34.3988V4.32324H35.1518Z" fill="white"/>
<path d="M37.5103 4.32324H38.2777V11.4751H37.5103V4.32324Z" fill="white"/>
</svg>
