<svg width="100" height="67" viewBox="0 0 100 67" fill="none" xmlns="http://www.w3.org/2000/svg">
<path fill-rule="evenodd" clip-rule="evenodd" d="M70.93 14.369H18.778C18.785 14.505 18.789 14.639 18.789 14.77C18.789 16.918 17.937 18.869 16.553 20.305C15.396 21.506 13.865 22.344 12.148 22.635V35.892C13.865 36.183 15.396 37.021 16.553 38.222C17.937 39.658 18.789 41.609 18.789 43.757C18.789 43.888 18.785 44.022 18.778 44.158H70.93C70.923 44.022 70.919 43.888 70.919 43.757C70.919 41.609 71.771 39.658 73.155 38.222C74.312 37.021 75.843 36.183 77.56 35.892V22.635C75.843 22.344 74.312 21.506 73.155 20.305C71.771 18.869 70.919 16.918 70.919 14.77C70.919 14.639 70.923 14.505 70.93 14.369ZM15.292 56.814H91.339C91.939 56.814 92.426 56.327 92.426 55.727V19.643H94.999V60.245H15.292V56.814ZM37.195 21.606C39.155 19.646 41.863 18.434 44.854 18.434C47.845 18.434 50.553 19.647 52.513 21.606C54.473 23.566 55.685 26.274 55.685 29.265C55.685 32.256 54.472 34.964 52.513 36.924C50.554 38.884 47.845 40.096 44.854 40.096C41.863 40.096 39.155 38.883 37.195 36.924C35.235 34.964 34.023 32.256 34.023 29.265C34.023 26.274 35.236 23.566 37.195 21.606ZM37.145 32.425C36.545 32.425 36.058 31.938 36.058 31.338C36.058 30.738 36.545 30.251 37.145 30.251H37.617C37.572 29.924 37.55 29.594 37.55 29.265C37.55 28.936 37.573 28.606 37.617 28.279H37.145C36.545 28.279 36.058 27.792 36.058 27.192C36.058 26.592 36.545 26.105 37.145 26.105H38.276C38.619 25.4 39.082 24.739 39.668 24.154C41.079 22.743 42.929 22.037 44.779 22.037C46.629 22.037 48.479 22.743 49.89 24.154C50.314 24.578 50.314 25.267 49.89 25.691C49.466 26.115 48.777 26.115 48.353 25.691C47.366 24.704 46.072 24.21 44.779 24.21C43.486 24.21 42.192 24.704 41.205 25.691C41.072 25.824 40.948 25.962 40.834 26.105H40.853C41.453 26.105 41.94 26.592 41.94 27.192C41.94 27.792 41.453 28.279 40.853 28.279H39.821C39.757 28.604 39.724 28.935 39.724 29.265C39.724 29.595 39.756 29.926 39.821 30.251H40.853C41.453 30.251 41.94 30.738 41.94 31.338C41.94 31.938 41.453 32.425 40.853 32.425H40.834C40.949 32.568 41.073 32.707 41.205 32.839C42.192 33.826 43.486 34.319 44.779 34.319C46.072 34.319 47.367 33.825 48.353 32.839C48.777 32.415 49.466 32.415 49.89 32.839C50.314 33.263 50.314 33.952 49.89 34.376C48.479 35.787 46.628 36.493 44.779 36.493C42.93 36.493 41.079 35.787 39.668 34.376C39.083 33.791 38.619 33.13 38.276 32.425H37.145ZM84.707 8.96401V49.566H5V8.96301H84.707V8.96401ZM17.554 12.197H72.167C72.767 12.197 73.254 12.684 73.254 13.284C73.254 13.372 73.244 13.457 73.224 13.539C73.178 13.749 73.145 13.949 73.125 14.138C73.104 14.332 73.093 14.544 73.093 14.773C73.093 16.341 73.712 17.762 74.717 18.805C75.728 19.853 77.129 20.523 78.685 20.58C79.27 20.601 79.73 21.082 79.73 21.663H79.734V36.871C79.734 37.471 79.247 37.958 78.647 37.958H78.606C77.081 38.033 75.711 38.697 74.717 39.728C73.712 40.771 73.093 42.193 73.093 43.761C73.093 43.99 73.104 44.202 73.125 44.396C73.146 44.591 73.181 44.798 73.229 45.016C73.358 45.602 72.987 46.182 72.401 46.311C72.318 46.329 72.235 46.337 72.154 46.337H17.541C16.941 46.337 16.454 45.85 16.454 45.25C16.454 45.162 16.464 45.077 16.484 44.995C16.53 44.785 16.563 44.585 16.584 44.396C16.605 44.202 16.616 43.99 16.616 43.761C16.616 42.193 15.997 40.772 14.992 39.728C13.981 38.68 12.58 38.01 11.024 37.954C10.439 37.933 9.979 37.452 9.979 36.871H9.975V21.663C9.975 21.063 10.462 20.576 11.062 20.576H11.103C12.628 20.501 13.999 19.836 14.992 18.806C15.997 17.763 16.616 16.341 16.616 14.774C16.616 14.545 16.605 14.333 16.584 14.139C16.563 13.944 16.528 13.737 16.48 13.519C16.351 12.933 16.722 12.353 17.308 12.224C17.391 12.206 17.474 12.198 17.555 12.199L17.554 12.197ZM86.881 14.039H90.252V54.641H10.545V51.74H85.794C86.394 51.74 86.881 51.253 86.881 50.653V14.039ZM19.774 27.654C20.15 27.278 20.67 27.045 21.244 27.045C21.818 27.045 22.338 27.278 22.714 27.654L22.716 27.652C23.091 28.028 23.323 28.548 23.323 29.124C23.323 29.7 23.09 30.218 22.714 30.594C22.338 30.97 21.818 31.203 21.244 31.203C20.67 31.203 20.15 30.97 19.774 30.594C19.398 30.218 19.165 29.698 19.165 29.124C19.165 28.571 19.379 28.07 19.727 27.698L19.774 27.654ZM66.991 27.652C67.367 27.277 67.887 27.045 68.463 27.045C69.039 27.045 69.557 27.278 69.933 27.654L69.935 27.652C70.31 28.028 70.542 28.548 70.542 29.124C70.542 29.677 70.328 30.178 69.98 30.55L69.934 30.594C69.558 30.97 69.038 31.203 68.464 31.203C67.912 31.203 67.41 30.989 67.038 30.641L66.994 30.595C66.618 30.219 66.385 29.699 66.385 29.125C66.385 28.551 66.617 28.029 66.992 27.653L66.991 27.652Z" fill="#031D40"/>
</svg>
