<svg width="400" height="236" viewBox="0 0 400 236" fill="none" xmlns="http://www.w3.org/2000/svg">
<g clip-path="url(#clip0_2070_197)">
<path d="M108.538 80.8602C111.531 69.8635 122.878 63.374 133.876 66.3667C144.701 69.3127 151.165 80.3545 148.503 91.1865L148.369 91.702L148.369 91.703C147.822 93.71 146.996 95.568 145.952 97.2412L145.902 97.3219L145.86 97.4092C144.871 99.5266 144.026 101.743 143.343 104.047L143.06 105.039L143.059 105.041C138.54 121.638 143.526 138.576 154.682 150.071L154.762 150.154L154.854 150.224C161.198 155.102 164.363 163.439 162.302 171.636L162.201 172.026C159.255 182.851 148.214 189.308 137.38 186.653L136.863 186.52L136.464 186.406C128.383 184.038 122.821 177.121 121.802 169.22L121.717 168.44C121.609 167.209 121.191 165.849 120.18 164.784L120.18 164.784C117.965 162.419 115.365 160.537 112.537 159.171L111.968 158.905L111.966 158.904L111.667 158.78C108.678 157.641 105.415 159.5 104.898 162.672L104.855 162.994C104.451 166.868 104.92 170.857 106.328 174.662L106.327 174.663C106.644 175.524 107.171 176.228 107.736 176.787L107.981 177.017C109.392 178.305 111.334 180.967 112.515 182.946L112.74 183.332L112.741 183.332C118.402 193.229 114.969 205.837 105.073 211.498C95.1765 217.158 82.5677 213.726 76.9076 203.83L76.9086 203.83C75.8341 201.95 74.3968 198.774 73.9686 196.922L73.9476 196.83L73.9156 196.74L73.5643 195.801C72.8397 193.926 71.9843 192.076 71.0017 190.263L70.4992 189.359L70.4975 189.356L70.093 188.662C61.479 174.176 45.536 164.686 29.703 164.45L29.5876 164.447L29.473 164.463C21.5378 165.501 13.4033 161.85 9.06196 154.588L8.85794 154.239C3.19798 144.343 6.6305 131.735 16.5264 126.075C26.2681 120.503 38.6377 123.742 44.4208 133.284L44.6907 133.743C45.5274 135.212 46.167 136.735 46.6118 138.277L46.6066 138.352L46.7128 138.658C47.5579 141.102 48.6046 143.507 49.872 145.851L50.4285 146.851C59.0528 161.923 75.5435 171.732 91.847 171.764L91.9508 171.765L92.0534 171.752C92.1245 171.743 92.2037 171.737 92.3419 171.728L92.3714 171.726C94.073 171.585 95.7373 170.861 96.9121 169.687C98.0395 168.56 98.7423 166.972 98.4628 165.171L98.3929 164.807L98.3929 164.806L98.2846 164.347C97.7583 162.205 96.9531 160.094 95.8405 158.071L95.5971 157.639C94.763 156.18 93.8014 154.819 92.7354 153.585L92.303 153.084L92.2689 153.082C91.9045 152.659 91.5706 152.204 91.2724 151.719L91.1032 151.433C88.2678 146.476 89.9876 140.164 94.9381 137.328L94.939 137.329C99.1369 134.926 104.311 135.792 107.517 139.126L107.821 139.456L107.823 139.459C108.289 139.986 108.705 140.56 109.064 141.188L109.064 141.189C109.582 142.099 109.951 143.046 110.176 144.008L110.197 144.1L110.229 144.189C110.668 145.402 111.207 146.599 111.839 147.761L112.115 148.257C113.588 150.836 115.447 153.08 117.584 154.931L117.585 154.93C120.367 157.35 124.318 156.078 125.751 153.038L125.881 152.738L125.882 152.737C126.54 151.096 127.151 149.384 127.567 147.855C132.145 131.048 126.97 113.882 115.503 102.375L115.446 102.318L115.383 102.266L114.819 101.788C109.285 96.9207 106.577 89.2702 108.314 81.6826L108.538 80.8602Z" fill="#CBFF4D" stroke="#CBFF4D" stroke-width="3.1751"/>
<path d="M314.05 176.955C318.717 167.775 329.85 164.03 339.091 168.445L339.529 168.662L339.53 168.662C348.709 173.328 352.454 184.461 348.039 193.702L347.823 194.14L347.822 194.141C343.155 203.32 332.024 207.066 322.783 202.651L322.345 202.434L322.344 202.433L321.911 202.207C313.047 197.414 309.489 186.489 313.834 177.394L314.05 176.956L314.05 176.955Z" fill="#CBFF4D" stroke="#CBFF4D" stroke-width="3.1751"/>
<path d="M356.713 93.1868C361.463 83.8618 372.867 80.1522 382.193 84.8935L382.665 85.1336C391.641 90.0223 395.146 101.196 390.487 110.362C389.406 112.483 387.736 114.516 385.902 116.145C384.054 117.787 382.152 118.917 380.667 119.357L380.585 119.38L380.521 119.407C380.508 119.412 380.493 119.418 380.477 119.425C380.421 119.448 380.299 119.501 380.157 119.599C376.92 121.822 374.505 123.384 372.79 125.087C370.963 126.902 369.916 128.872 369.17 131.858C368.66 133.894 368.687 135.922 368.89 137.844C369.038 139.245 369.298 140.711 369.527 142.075L369.741 143.398C370.308 147.168 369.749 151.136 367.888 154.798C363.139 164.123 351.735 167.832 342.409 163.091L342.408 163.091C333.23 158.415 329.493 147.292 333.9 138.051L334.117 137.613L334.117 137.612C335.852 134.194 338.486 131.527 341.582 129.76L342.206 129.418C343.711 128.633 345.518 127.792 347.119 126.863C348.664 125.967 350.194 124.897 351.478 123.465L351.731 123.173L351.732 123.173C353.37 121.23 354.367 119.501 354.899 117.5C355.353 115.794 355.444 113.973 355.416 111.814L355.398 110.867C355.363 109.399 355.201 107.953 355.042 106.579C354.901 105.358 354.763 104.197 354.693 103.045L354.667 102.551C354.534 99.4099 355.184 96.1953 356.713 93.1868Z" fill="#CBFF4D" stroke="#CBFF4D" stroke-width="3.1751"/>
<path d="M349.238 194.861C344.099 204.967 331.73 208.996 321.624 203.849C311.517 198.711 307.489 186.342 312.636 176.235C317.774 166.128 330.143 162.1 340.249 167.247C350.356 172.385 354.385 184.754 349.238 194.861Z" fill="#CBFF4D" stroke="#CBFF4D" stroke-width="2.03206"/>
<path d="M382.912 83.4781C372.805 78.3397 360.445 82.3602 355.298 92.4665C353.642 95.7243 352.936 99.2116 353.08 102.62C353.2 105.388 353.744 108.133 353.811 110.906C353.939 116.055 353.589 118.506 350.518 122.149C348.179 124.92 344.684 126.335 341.472 128.011C337.822 129.915 334.707 132.943 332.701 136.893C327.563 147 331.583 159.36 341.689 164.506C351.796 169.645 364.156 165.624 369.303 155.518C371.319 151.552 371.926 147.247 371.311 143.16C370.76 139.526 369.817 135.813 370.71 132.243C372.091 126.716 374.411 125.47 381.056 120.909C381.074 120.893 381.1 120.886 381.118 120.879C384.684 119.822 389.527 115.74 391.901 111.083C397.039 100.976 393.019 88.6165 382.913 83.4695L382.912 83.4781Z" fill="#CBFF4D" stroke="#CBFF4D" stroke-width="2.03206"/>
<path d="M155.329 17.5086C142.163 22.9741 135.921 38.076 141.386 51.2426C143.539 56.4189 147.18 60.5336 151.605 63.2708C151.745 63.3581 151.878 63.4362 152.019 63.5236C163.932 70.8477 171.94 83.7929 172.495 98.5011C172.541 99.5909 172.421 100.704 172.5 101.813C172.617 103.615 173.065 105.129 173.738 106.745C174.959 109.676 176.771 111.543 179.257 113.879C188.384 124.098 192.374 138.405 189.072 152.39C187.682 157.667 187.941 163.42 190.197 168.845C195.663 182.012 210.765 188.253 223.931 182.788C237.098 177.323 243.34 162.221 237.874 149.054C235.655 143.718 231.857 139.515 227.251 136.774C221.592 133.287 216.97 128.648 213.551 123.324C210.514 118.595 213.323 112.623 218.774 111.248C227.2 109.121 236.071 108.163 245.203 108.56C255.573 109.007 265.571 111.215 274.9 114.876C280.14 116.937 282.08 124.944 278.471 129.258C274.778 133.669 270.157 137.395 264.769 140.111C259.942 142.452 255.795 146.305 253.13 151.434C246.558 164.081 251.485 179.669 264.132 186.241C276.779 192.814 292.367 187.886 298.939 175.239C301.645 170.027 302.401 164.318 301.469 158.941C299.379 144.723 304.7 129.091 314.662 119.697C317.604 117.183 319.307 115.877 320.768 113.063C321.574 111.514 322.054 110.185 322.428 108.253C322.633 107.155 322.581 106.039 322.716 104.953C324.534 90.3477 333.63 78.1334 346.119 71.8623C346.262 71.7859 346.405 71.7181 346.556 71.651C351.203 69.2979 355.18 65.5187 357.766 60.5397C364.339 47.8927 359.411 32.3052 346.764 25.7326C334.117 19.1599 318.53 24.0875 311.957 36.7346C309.272 41.8965 308.504 47.5355 309.396 52.8664C311.2 64.3489 308.097 75.4586 301.649 84.2937C285.826 98.2606 267.871 99.5063 248.274 98.6639C230.888 97.9135 213.407 95.5266 200.21 84.2934C196.202 80.8864 193.108 76.4731 191.372 71.5066C188.772 64.0657 188.223 55.8951 190.233 47.7545C191.577 42.526 191.297 36.8319 189.062 31.4687C183.597 18.3021 168.495 12.0604 155.328 17.5258L155.329 17.5086Z" fill="#CBFF4D" stroke="#CBFF4D" stroke-width="2.50833"/>
</g>
<defs>
<clipPath id="clip0_2070_197">
<rect width="386.131" height="209.512" fill="white" transform="translate(14.4121 0.322266) rotate(3.94451)"/>
</clipPath>
</defs>
</svg>
